<?xml version="1.0" encoding="iso-8859-1"?>
<!-- Generator: Adobe Illustrator 19.0.0, SVG Export Plug-In . SVG Version: 6.00 Build 0)  -->
<svg version="1.1" id="Capa_1" xmlns="http://www.w3.org/2000/svg" xmlns:xlink="http://www.w3.org/1999/xlink" x="0px" y="0px"
	 viewBox="0 0 512.021 512.021" style="enable-background:new 0 0 512.021 512.021;" xml:space="preserve">
<path style="fill:#F2F2F2;" d="M352.555,0H32.011c-17.664,0-32,14.336-32,32v366.955L113.056,512h239.499c17.685,0,32-14.315,32-32
	V32C384.555,14.336,370.24,0,352.555,0"/>
<path style="fill:#CDD6E0;" d="M487.115,447.232c12.373-12.395,17.557-30.005,13.877-47.104
	c-3.669-17.12-15.669-31.04-32.043-37.227l-46.773-17.664c-16.043-6.059-25.707-22.187-23.499-39.189l1.376-10.539
	c0.523-3.979-2.272-7.627-6.251-8.149c-3.979-0.523-7.627,2.272-8.171,6.251l-1.376,10.539c-3.083,23.733,10.4,46.229,32.789,54.688
	l46.752,17.664c13.045,4.917,22.187,16.672,23.627,30.795c1.163,11.349-3.477,22.539-11.563,30.603l-4.171,4.192l10.272,10.272
	L487.115,447.232z"/>
<path style="fill:#3DC9AE;" d="M505.408,451.872c-60.245-78.421-147.52-129.771-218.379-197.579l-32.725,32.725
	c67.808,70.859,119.168,158.144,197.579,218.379c14.624,10.517,37.504,8,49.504-4.021
	C513.387,489.376,515.904,466.496,505.408,451.872"/>
<polygon style="fill:#334A5E;" points="365.344,419.712 419.723,365.333 433.323,377.067 377.078,433.333 "/>
<polygon style="fill:#FFD15C;" points="253.472,280.608 224.278,272.352 210.326,210.315 272.363,224.267 280.64,253.461 "/>
<path style="fill:#334A5E;" d="M285.696,248.395l-37.291,37.291c-2.016,2.016-2.016,5.269,0,7.296l2.773,2.773
	c2.005,2.005,5.269,2.005,7.275,0l37.291-37.312c2.016-2.005,2.016-5.248,0-7.275l-2.773-2.773
	C290.966,246.4,287.702,246.4,285.696,248.395"/>
<path style="fill:#FFFFFF;" d="M253.014,243.563c-2.603-2.581-6.837-2.581-9.44,0c-2.603,2.603-2.603,6.837,0,9.44
	s6.837,2.603,9.44,0S255.616,246.165,253.014,243.563"/>
<g>
	<rect x="42.678" y="59.755" style="fill:#CDD6E0;" width="299.2" height="26.251"/>
	<rect x="42.678" y="132.128" style="fill:#CDD6E0;" width="299.2" height="26.251"/>
	<rect x="42.678" y="204.491" style="fill:#CDD6E0;" width="131.755" height="26.251"/>
	<polygon style="fill:#CDD6E0;" points="0.011,398.955 113.056,512.021 113.056,398.955 	"/>
</g>
<g>
</g>
<g>
</g>
<g>
</g>
<g>
</g>
<g>
</g>
<g>
</g>
<g>
</g>
<g>
</g>
<g>
</g>
<g>
</g>
<g>
</g>
<g>
</g>
<g>
</g>
<g>
</g>
<g>
</g>
</svg>
