<?xml version="1.0" encoding="iso-8859-1"?>
<!-- Generator: Adobe Illustrator 19.0.0, SVG Export Plug-In . SVG Version: 6.00 Build 0)  -->
<svg version="1.1" id="Capa_1" xmlns="http://www.w3.org/2000/svg" xmlns:xlink="http://www.w3.org/1999/xlink" x="0px" y="0px"
	 viewBox="0 0 513.529 513.529" style="enable-background:new 0 0 513.529 513.529;" xml:space="preserve">
<path style="fill:#F2F2F2;" d="M355.797,1.001H42.667C19.104,1.001,0,20.105,0,43.667v426.667c0,23.563,19.104,42.667,42.667,42.667
	h244.267l111.52-111.52V43.667C398.464,20.105,379.36,1.001,355.797,1.001"/>
<g>
	<rect x="42.667" y="52.19" style="fill:#CDD6E0;" width="313.12" height="26.763"/>
	<rect x="42.667" y="130.857" style="fill:#CDD6E0;" width="313.12" height="26.763"/>
	<rect x="42.667" y="209.513" style="fill:#CDD6E0;" width="313.12" height="26.763"/>
	<rect x="42.667" y="288.19" style="fill:#CDD6E0;" width="313.12" height="26.752"/>
	<rect x="42.667" y="366.846" style="fill:#CDD6E0;" width="193.493" height="26.752"/>
	<path style="fill:#CDD6E0;" d="M398.464,401.481l-111.52,111.52v-68.853c0-23.563,19.104-42.667,42.667-42.667H398.464z"/>
</g>
<path style="fill:#FFD15C;" d="M264.544,265.961c-4.16,4.608-8.277,9.579-12.245,15.648l-0.107,0.171l2.251,85.419l79.147-32.192
	l0.107-0.149c3.968-6.08,6.88-11.851,9.419-17.504L264.544,265.961z"/>
<path id="SVGCleanerId_0" style="fill:#F1543F;" d="M451.52,111.049L324.224,305.694c-5.312,8.128-1.099,21.024,9.429,29.141
	l137.824-210.731L451.52,111.049z"/>
<path id="SVGCleanerId_1" style="fill:#F1543F;" d="M390.123,70.878L252.299,281.609c11.648,6.4,25.173,5.109,30.485-3.019
	L410.08,83.945L390.123,70.878z"/>
<path id="SVGCleanerId_2" style="fill:#FF7058;" d="M410.08,83.945L282.784,278.569c-5.451,8.331-1.365,22.336,10.091,29.813
	c11.435,7.477,25.909,5.621,31.339-2.688L451.52,111.059L410.08,83.945z"/>
<g>
	<path id="SVGCleanerId_0_1_" style="fill:#F1543F;" d="M451.52,111.049L324.224,305.694c-5.312,8.128-1.099,21.024,9.429,29.141
		l137.824-210.731L451.52,111.049z"/>
</g>
<g>
	<path id="SVGCleanerId_1_1_" style="fill:#F1543F;" d="M390.123,70.878L252.299,281.609c11.648,6.4,25.173,5.109,30.485-3.019
		L410.08,83.945L390.123,70.878z"/>
</g>
<g>
	<path id="SVGCleanerId_2_1_" style="fill:#FF7058;" d="M410.08,83.945L282.784,278.569c-5.451,8.331-1.365,22.336,10.091,29.813
		c11.435,7.477,25.909,5.621,31.339-2.688L451.52,111.059L410.08,83.945z"/>
</g>
<rect x="420.408" y="31.123" transform="matrix(0.5474 -0.8369 0.8369 0.5474 133.4985 406.3558)" style="fill:#E8EAEA;" width="44.033" height="97.272"/>
<path style="fill:#84DBFF;" d="M499.904,25.747L468.853,5.449c-13.899-9.109-32.544-5.205-41.621,8.693l-19.211,29.376
	l81.397,53.237l19.211-29.376C517.707,53.481,513.813,34.835,499.904,25.747"/>
<path style="fill:#40596B;" d="M253.611,335.635l0.832,31.563l29.248-11.893C278.752,343.134,266.731,335.273,253.611,335.635"/>
<g>
</g>
<g>
</g>
<g>
</g>
<g>
</g>
<g>
</g>
<g>
</g>
<g>
</g>
<g>
</g>
<g>
</g>
<g>
</g>
<g>
</g>
<g>
</g>
<g>
</g>
<g>
</g>
<g>
</g>
</svg>
