<?xml version="1.0" encoding="iso-8859-1"?>
<!-- Generator: Adobe Illustrator 19.0.0, SVG Export Plug-In . SVG Version: 6.00 Build 0)  -->
<svg version="1.1" id="Capa_1" xmlns="http://www.w3.org/2000/svg" xmlns:xlink="http://www.w3.org/1999/xlink" x="0px" y="0px"
	 viewBox="0 0 512 512" style="enable-background:new 0 0 512 512;" xml:space="preserve">
<polygon style="fill:#F2F2F2;" points="410.635,293.771 101.365,293.771 0,512 512,512 "/>
<polygon style="fill:#84DBFF;" points="344.235,307.893 114.944,307.893 46.155,477.184 465.856,477.184 426.944,381.44 
	285.952,349.92 "/>
<polygon style="fill:#FFD15C;" points="101.237,477.184 278.656,477.184 212.725,406.208 "/>
<polygon style="fill:#CDD6E0;" points="114.005,310.208 46.155,477.184 91.925,477.184 286.293,354.475 "/>
<polygon style="fill:#FFD15C;" points="334.304,307.893 295.904,351.957 425.717,378.443 397.056,307.893 "/>
<g>
	<polygon style="fill:#FFFFFF;" points="114.944,307.893 109.483,321.376 431.605,392.917 422.485,370.475 126.635,307.893 	"/>
	<polygon style="fill:#FFFFFF;" points="121.579,477.184 357.216,307.893 325.259,307.893 74.037,477.184 	"/>
	<polygon style="fill:#FFFFFF;" points="216.971,392.917 197.035,409.664 259.573,477.184 301.973,477.184 	"/>
</g>
<path style="fill:#FF7058;" d="M382.528,126.517C382.528,250.667,256,343.168,256,343.168s-126.528-92.501-126.528-216.651
	C129.472,56.651,186.123,0,256,0C325.888,0,382.528,56.651,382.528,126.517"/>
<path style="fill:#FFFFFF;" d="M316.256,126.229c0,33.461-27.104,60.565-60.565,60.565c-33.451,0-60.565-27.104-60.565-60.565
	s27.115-60.565,60.565-60.565C289.152,65.664,316.256,92.768,316.256,126.229"/>
<g>
</g>
<g>
</g>
<g>
</g>
<g>
</g>
<g>
</g>
<g>
</g>
<g>
</g>
<g>
</g>
<g>
</g>
<g>
</g>
<g>
</g>
<g>
</g>
<g>
</g>
<g>
</g>
<g>
</g>
</svg>
