<?xml version="1.0" encoding="utf-8"?>
<svg width="75px" height="75px" viewBox="0 0 75 75" version="1.1" xmlns:xlink="http://www.w3.org/1999/xlink" xmlns="http://www.w3.org/2000/svg">
  <desc>Created with Lunacy</desc>
  <g id="icons/camera">
    <path d="M41.6319 6.81694L50.5572 6.81694C53.0047 6.81694 55 8.76944 55 11.2567L55 38.2739C55 40.7581 53.0017 42.7778 50.5572 42.7778L4.44278 42.7778C1.98306 42.7778 0 40.7581 0 38.2739L0 11.2567C0 8.76944 1.98306 6.81694 4.44278 6.81694L13.5667 6.81694L18.7886 1.46972L18.7886 1.4575C19.5953 0.562222 20.7442 0 22.0397 0L33.1467 0C34.3628 0 35.4322 0.507222 36.2236 1.30778L36.2511 1.33528C36.2633 1.33528 36.2908 1.36278 36.2908 1.36278L41.6319 6.81694ZM27.5 36.0281C20.7717 36.0281 15.2839 30.4669 15.2839 23.65C15.2839 16.8178 20.7717 11.2719 27.5 11.2719C34.2436 11.2719 39.7161 16.8208 39.7161 23.65C39.7161 30.4669 34.2436 36.0281 27.5 36.0281Z" transform="translate(10 15)" id="Shape" fill="#C1C0C9" fill-rule="evenodd" stroke="none" />
  </g>
</svg>