<?xml version="1.0" encoding="utf-8"?>
<svg width="252px" height="260px" viewBox="0 0 252 260" version="1.1" xmlns:xlink="http://www.w3.org/1999/xlink" xmlns="http://www.w3.org/2000/svg">
  <desc>Created with Lunacy</desc>
  <defs>
    <filter filterUnits="userSpaceOnUse" color-interpolation-filters="sRGB" id="filter_1">
      <feFlood flood-opacity="0" result="BackgroundImageFix" />
      <feColorMatrix in="SourceAlpha" type="matrix" values="0 0 0 0 0 0 0 0 0 0 0 0 0 0 0 0 0 0 127 0" />
      <feOffset dx="0" dy="2" />
      <feGaussianBlur stdDeviation="7" />
      <feColorMatrix type="matrix" values="0 0 0 0 0 0 0 0 0 0 0 0 0 0 0 0 0 0 0.2 0" />
      <feBlend mode="normal" in2="BackgroundImageFix" result="effect0_dropShadow" />
      <feBlend mode="normal" in="SourceGraphic" in2="effect0_dropShadow" result="shape" />
    </filter>
  </defs>
  <g filter="url(#filter_1)">
    <path d="M35.999 0L174.001 0Q174.885 0 175.767 0.0433624Q176.65 0.0867247 177.53 0.173345Q178.409 0.259965 179.283 0.389635Q180.157 0.519304 181.024 0.691711Q181.891 0.864117 182.748 1.07884Q183.605 1.29357 184.451 1.5501Q185.297 1.80664 186.129 2.10436Q186.961 2.40207 187.777 2.74026Q188.594 3.07845 189.393 3.45629Q190.191 3.83413 190.971 4.25072Q191.75 4.6673 192.508 5.12163Q193.266 5.57595 194.001 6.06693Q194.736 6.5579 195.446 7.08433Q196.155 7.61077 196.839 8.1714Q197.522 8.73203 198.176 9.3255Q198.831 9.91897 199.456 10.5439Q200.081 11.1688 200.674 11.8236Q201.268 12.4783 201.829 13.1615Q202.389 13.8446 202.916 14.5544Q203.442 15.2642 203.933 15.999Q204.424 16.7338 204.878 17.4918Q205.333 18.2498 205.749 19.0292Q206.166 19.8086 206.544 20.6074Q206.922 21.4063 207.26 22.2228Q207.598 23.0392 207.896 23.8713Q208.193 24.7034 208.45 25.549Q208.706 26.3947 208.921 27.252Q209.136 28.1092 209.308 28.9759Q209.481 29.8427 209.61 30.7169Q209.74 31.591 209.827 32.4705Q209.913 33.35 209.957 34.2326Q210 35.1153 210 35.999L210 182.001Q210 182.885 209.957 183.767Q209.913 184.65 209.827 185.53Q209.74 186.409 209.61 187.283Q209.481 188.157 209.308 189.024Q209.136 189.891 208.921 190.748Q208.706 191.605 208.45 192.451Q208.193 193.297 207.896 194.129Q207.598 194.961 207.26 195.777Q206.922 196.594 206.544 197.393Q206.166 198.191 205.749 198.971Q205.333 199.75 204.878 200.508Q204.424 201.266 203.933 202.001Q203.442 202.736 202.916 203.446Q202.389 204.155 201.829 204.839Q201.268 205.522 200.674 206.176Q200.081 206.831 199.456 207.456Q198.831 208.081 198.176 208.674Q197.522 209.268 196.839 209.829Q196.155 210.389 195.446 210.916Q194.736 211.442 194.001 211.933Q193.266 212.424 192.508 212.878Q191.75 213.333 190.971 213.749Q190.191 214.166 189.393 214.544Q188.594 214.922 187.777 215.26Q186.961 215.598 186.129 215.896Q185.297 216.193 184.451 216.45Q183.605 216.706 182.748 216.921Q181.891 217.136 181.024 217.308Q180.157 217.481 179.283 217.61Q178.409 217.74 177.53 217.827Q176.65 217.913 175.767 217.957Q174.885 218 174.001 218L35.999 218Q35.1153 218 34.2326 217.957Q33.35 217.913 32.4705 217.827Q31.591 217.74 30.7169 217.61Q29.8427 217.481 28.9759 217.308Q28.1092 217.136 27.252 216.921Q26.3947 216.706 25.549 216.45Q24.7034 216.193 23.8713 215.896Q23.0392 215.598 22.2228 215.26Q21.4063 214.922 20.6074 214.544Q19.8086 214.166 19.0292 213.749Q18.2498 213.333 17.4918 212.878Q16.7338 212.424 15.999 211.933Q15.2642 211.442 14.5544 210.916Q13.8446 210.389 13.1615 209.829Q12.4783 209.268 11.8236 208.674Q11.1688 208.081 10.5439 207.456Q9.91897 206.831 9.3255 206.176Q8.73203 205.522 8.1714 204.839Q7.61077 204.155 7.08433 203.446Q6.5579 202.736 6.06693 202.001Q5.57595 201.266 5.12163 200.508Q4.6673 199.75 4.25072 198.971Q3.83413 198.191 3.45629 197.393Q3.07845 196.594 2.74026 195.777Q2.40207 194.961 2.10436 194.129Q1.80664 193.297 1.5501 192.451Q1.29357 191.605 1.07884 190.748Q0.864117 189.891 0.691711 189.024Q0.519304 188.157 0.389635 187.283Q0.259965 186.409 0.173345 185.53Q0.0867247 184.65 0.0433624 183.767Q0 182.885 0 182.001L0 35.999Q0 35.1153 0.0433624 34.2326Q0.0867247 33.3499 0.173345 32.4705Q0.259965 31.591 0.389635 30.7168Q0.519304 29.8427 0.691711 28.9759Q0.864117 28.1092 1.07884 27.252Q1.29357 26.3947 1.5501 25.549Q1.80664 24.7034 2.10436 23.8713Q2.40207 23.0392 2.74026 22.2228Q3.07845 21.4063 3.45629 20.6074Q3.83413 19.8086 4.25072 19.0292Q4.6673 18.2498 5.12163 17.4918Q5.57595 16.7338 6.06693 15.999Q6.5579 15.2642 7.08433 14.5544Q7.61077 13.8446 8.1714 13.1615Q8.73203 12.4783 9.3255 11.8235Q9.91897 11.1688 10.5439 10.5439Q11.1688 9.91897 11.8236 9.3255Q12.4783 8.73203 13.1615 8.1714Q13.8446 7.61077 14.5544 7.08433Q15.2642 6.5579 15.999 6.06693Q16.7338 5.57595 17.4918 5.12163Q18.2498 4.6673 19.0292 4.25072Q19.8086 3.83413 20.6074 3.45629Q21.4063 3.07845 22.2228 2.74026Q23.0392 2.40207 23.8713 2.10436Q24.7034 1.80664 25.549 1.5501Q26.3947 1.29357 27.252 1.07884Q28.1092 0.864117 28.9759 0.691711Q29.8427 0.519304 30.7169 0.389635Q31.591 0.259965 32.4705 0.173345Q33.35 0.0867247 34.2326 0.0433624Q35.1153 0 35.999 0L35.999 0Z" transform="translate(21 19)" id="Rectangle" fill="#FFFFFF" stroke="none" />
  </g>
</svg>