<?xml version="1.0" encoding="utf-8"?>
<svg width="190px" height="196px" viewBox="0 0 190 196" version="1.1" xmlns:xlink="http://www.w3.org/1999/xlink" xmlns="http://www.w3.org/2000/svg">
  <desc>Created with Lunacy</desc>
  <path d="M23.999 0L164.001 0Q164.59 0 165.179 0.0289078Q165.767 0.0578157 166.353 0.115562Q166.94 0.173308 167.522 0.259753Q168.105 0.346198 168.683 0.461134Q169.261 0.57607 169.832 0.71922Q170.404 0.86237 170.968 1.03339Q171.531 1.20441 172.086 1.40288Q172.641 1.60136 173.185 1.82682Q173.729 2.05227 174.262 2.30416Q174.794 2.55605 175.314 2.83377Q175.834 3.11149 176.339 3.41437Q176.844 3.71725 177.334 4.04456Q177.824 4.37187 178.297 4.72282Q178.77 5.07377 179.226 5.44752Q179.681 5.82127 180.118 6.21691Q180.554 6.61256 180.971 7.02914Q181.387 7.44573 181.783 7.88226Q182.179 8.31878 182.552 8.7742Q182.926 9.22961 183.277 9.70281Q183.628 10.176 183.955 10.6659Q184.283 11.1557 184.586 11.661Q184.888 12.1664 185.166 12.6859Q185.444 13.2055 185.696 13.7381Q185.948 14.2707 186.173 14.815Q186.399 15.3593 186.597 15.914Q186.796 16.4687 186.967 17.0325Q187.138 17.5962 187.281 18.1677Q187.424 18.7392 187.539 19.317Q187.654 19.8948 187.74 20.4776Q187.827 21.0604 187.884 21.6467Q187.942 22.233 187.971 22.8214Q188 23.4099 188 23.999L188 170.001Q188 170.59 187.971 171.179Q187.942 171.767 187.884 172.353Q187.827 172.94 187.74 173.522Q187.654 174.105 187.539 174.683Q187.424 175.261 187.281 175.832Q187.138 176.404 186.967 176.968Q186.796 177.531 186.597 178.086Q186.399 178.641 186.173 179.185Q185.948 179.729 185.696 180.262Q185.444 180.794 185.166 181.314Q184.888 181.834 184.586 182.339Q184.283 182.844 183.955 183.334Q183.628 183.824 183.277 184.297Q182.926 184.77 182.552 185.226Q182.179 185.681 181.783 186.118Q181.387 186.554 180.971 186.971Q180.554 187.387 180.118 187.783Q179.681 188.179 179.226 188.552Q178.77 188.926 178.297 189.277Q177.824 189.628 177.334 189.955Q176.844 190.283 176.339 190.586Q175.834 190.888 175.314 191.166Q174.794 191.444 174.262 191.696Q173.729 191.948 173.185 192.173Q172.641 192.399 172.086 192.597Q171.531 192.796 170.967 192.967Q170.404 193.138 169.832 193.281Q169.261 193.424 168.683 193.539Q168.105 193.654 167.522 193.74Q166.94 193.827 166.353 193.884Q165.767 193.942 165.179 193.971Q164.59 194 164.001 194L23.999 194Q23.4099 194 22.8214 193.971Q22.233 193.942 21.6467 193.884Q21.0604 193.827 20.4776 193.74Q19.8948 193.654 19.317 193.539Q18.7392 193.424 18.1677 193.281Q17.5962 193.138 17.0325 192.967Q16.4687 192.796 15.914 192.597Q15.3593 192.399 14.815 192.173Q14.2707 191.948 13.7381 191.696Q13.2055 191.444 12.6859 191.166Q12.1664 190.888 11.661 190.586Q11.1557 190.283 10.6659 189.955Q10.176 189.628 9.70281 189.277Q9.22961 188.926 8.7742 188.552Q8.31878 188.179 7.88226 187.783Q7.44573 187.387 7.02914 186.971Q6.61256 186.554 6.21691 186.118Q5.82127 185.681 5.44752 185.226Q5.07377 184.77 4.72282 184.297Q4.37187 183.824 4.04456 183.334Q3.71725 182.844 3.41437 182.339Q3.11149 181.834 2.83377 181.314Q2.55605 180.794 2.30416 180.262Q2.05227 179.729 1.82682 179.185Q1.60136 178.641 1.40288 178.086Q1.20441 177.531 1.03339 176.968Q0.86237 176.404 0.71922 175.832Q0.57607 175.261 0.461134 174.683Q0.346198 174.105 0.259753 173.522Q0.173308 172.94 0.115562 172.353Q0.0578157 171.767 0.0289078 171.179Q0 170.59 0 170.001L0 23.999Q0 23.4099 0.0289078 22.8214Q0.0578157 22.233 0.115562 21.6467Q0.173308 21.0604 0.259753 20.4776Q0.346198 19.8948 0.461134 19.317Q0.57607 18.7392 0.71922 18.1677Q0.86237 17.5962 1.03339 17.0325Q1.20441 16.4687 1.40288 15.914Q1.60136 15.3593 1.82682 14.815Q2.05227 14.2707 2.30416 13.7381Q2.55605 13.2055 2.83377 12.6859Q3.11149 12.1664 3.41437 11.661Q3.71725 11.1557 4.04456 10.6659Q4.37187 10.176 4.72282 9.70281Q5.07377 9.22961 5.44752 8.7742Q5.82127 8.31878 6.21691 7.88226Q6.61256 7.44573 7.02914 7.02914Q7.44573 6.61256 7.88226 6.21691Q8.31878 5.82127 8.7742 5.44752Q9.22961 5.07377 9.70281 4.72282Q10.176 4.37187 10.6659 4.04456Q11.1557 3.71725 11.661 3.41437Q12.1664 3.11149 12.6859 2.83377Q13.2055 2.55605 13.7381 2.30416Q14.2707 2.05227 14.815 1.82682Q15.3593 1.60136 15.914 1.40288Q16.4687 1.20441 17.0325 1.03339Q17.5962 0.86237 18.1677 0.71922Q18.7392 0.57607 19.317 0.461134Q19.8948 0.346198 20.4776 0.259753Q21.0604 0.173308 21.6467 0.115562Q22.233 0.0578157 22.8214 0.0289078Q23.4099 0 23.999 0L23.999 0Z" transform="translate(1 1)" id="Rectangle-Copy" fill="none" stroke="#4792E2" stroke-width="2" stroke-dasharray="6 6" />
</svg>