<svg xmlns="http://www.w3.org/2000/svg" viewBox="0 0 429 335.93"><g style="isolation:isolate"><g id="Capa_1" data-name="Capa 1"><path d="M409.79,356.51l.49-.56c2.77-3.14,5.41-6.38,7.92-9.69l.35-.45q3.79-5,7.19-10.33l.19-.3q3.44-5.35,6.43-10.93l.08-.15q3-5.64,5.62-11.47h0c24.16-54.4,19.13-120.09-20.8-171.51-33.66-43.35-93.21-22.45-139.17-38.05-56.6-19.22-86.73-30.61-138.41,12.18-59.28,49.08-98.08,152-63.89,225.31l.17.35c.62,1.31,1.26,2.62,1.92,3.91l.46.86q.87,1.68,1.8,3.33c.21.38.44.76.66,1.14q.86,1.5,1.77,3c.27.44.54.88.82,1.31.58.92,1.18,1.83,1.78,2.73l1,1.41c.59.86,1.2,1.71,1.82,2.55L89,362.58c.62.82,1.25,1.62,1.89,2.43l1.19,1.47c.65.79,1.32,1.57,2,2.34.42.49.83,1,1.26,1.45.7.78,1.42,1.55,2.14,2.32L98.79,374c.8.82,1.63,1.63,2.46,2.44.38.37.76.76,1.15,1.13q1.84,1.75,3.79,3.46a120.88,120.88,0,0,0,12.34,9.42,142.61,142.61,0,0,0,13.8,8.09,168.81,168.81,0,0,0,19,8.29A205,205,0,0,0,172,413.12c1.41.36,2.84.7,4.27,1,2.87.66,5.77,1.28,8.69,1.84a270.38,270.38,0,0,0,26.9,3.78c3.05.27,6.1.5,9.17.68,9.19.54,18.47.66,27.73.37,7.71-.23,15.4-.75,23-1.54a302.93,302.93,0,0,0,35.63-5.82,256.7,256.7,0,0,0,28.89-8.29c1.31-.46,2.6-.93,3.89-1.42,2.56-1,5.09-2,7.56-3a174,174,0,0,0,20.77-10.34c1.79-1.05,3.54-2.14,5.28-3.25l1.34-.87q2.34-1.51,4.62-3.1l.51-.35c1.67-1.17,3.31-2.38,4.93-3.6l1.14-.87q2.12-1.63,4.17-3.31l.66-.54q2.36-1.95,4.62-4l.84-.75c1.34-1.21,2.65-2.43,3.95-3.67l.61-.59q2.22-2.16,4.35-4.38l.46-.48C407.25,359.32,408.53,357.92,409.79,356.51Z" transform="translate(-35.19 -85.9)" style="fill:#f0f0f0"/><path d="M426.67,200.32H401.86v69.95H381v41H354.59V184.73l-57.45,50v78.53h-38V265.37H211.57v-46l-28.73-15V162.22H172.11v36.51l-18-9.4v51.79H109V147.76c-40.54,53.9-61,133.14-33.22,192.8l.17.35c.62,1.31,1.26,2.62,1.92,3.91l.46.86q.87,1.68,1.8,3.33c.21.38.44.76.66,1.14q.86,1.5,1.77,3c.27.44.54.88.82,1.31.58.92,1.18,1.83,1.78,2.73l1,1.41c.59.86,1.2,1.71,1.82,2.55L89,362.58c.62.82,1.25,1.62,1.89,2.43l1.19,1.47c.65.79,1.32,1.57,2,2.34.42.49.83,1,1.26,1.45.7.78,1.42,1.55,2.14,2.32L98.79,374c.8.82,1.63,1.63,2.46,2.44.38.37.76.76,1.15,1.13q1.84,1.75,3.79,3.46a120.88,120.88,0,0,0,12.34,9.42,142.61,142.61,0,0,0,13.8,8.09,168.81,168.81,0,0,0,19,8.29A205,205,0,0,0,172,413.12c1.41.36,2.84.7,4.27,1,2.87.66,5.77,1.28,8.69,1.84a270.38,270.38,0,0,0,26.9,3.78c3.05.27,6.1.5,9.17.68,9.19.54,18.47.66,27.73.37,7.71-.23,15.4-.75,23-1.54a303.47,303.47,0,0,0,32.84-5.21l11.38-2.71c7-1.82,13.79-3.88,20.3-6.19,1.31-.46,2.6-.93,3.89-1.42,2.56-1,5.09-2,7.56-3a174,174,0,0,0,20.77-10.34c1.79-1.05,3.54-2.14,5.28-3.25l1.34-.87q2.34-1.51,4.62-3.1l.51-.35c1.67-1.17,3.31-2.38,4.93-3.6l1.14-.87q2.12-1.63,4.17-3.31l.66-.54q2.36-1.95,4.62-4l.84-.75c1.34-1.21,2.65-2.43,3.95-3.67l.61-.59q2.22-2.16,4.35-4.38l.46-.48c1.31-1.37,2.59-2.77,3.85-4.18l.49-.56c2.77-3.14,5.41-6.38,7.92-9.69l.35-.45q3.79-5,7.19-10.33l.19-.3q3.44-5.35,6.43-10.93l.08-.15q3-5.64,5.62-11.47h0c22.11-49.77,19.75-109-11.39-158.09Z" transform="translate(-35.19 -85.9)" style="fill:#e0e0e0"/><path d="M427.81,327.16l-18.12-59.89a3.53,3.53,0,0,0-6.74-.06C399,280,392,292.05,386.82,304.53c-7,16.64-10.53,37-.22,51.8L359.1,355a101,101,0,0,0-12.82-76.77,2.75,2.75,0,0,0-4.79.28,116.11,116.11,0,0,0-4,90.08l-59.39-1.72a21.5,21.5,0,0,0-6.18-19.24,2.67,2.67,0,0,0-4.5,1.62q-1.15,9.54-2.29,19.1l-66.32,1.12-.92-12.74c6.53-3.07,6.57-12.3,5-19.34a122.32,122.32,0,0,0-23-48.37,2.68,2.68,0,0,0-4.39.24,161.38,161.38,0,0,0-21.53,53.67A61,61,0,0,0,146.13,302a2.68,2.68,0,0,0-4.3-.37,41.16,41.16,0,0,0-8.57,39.19l-19.64.16a33.51,33.51,0,0,0-10.35-31.76,2.7,2.7,0,0,0-4.13.67,32.78,32.78,0,0,0-3.35,24.78l-12.1-1.37a57.37,57.37,0,0,0-6.07-41.16,2.68,2.68,0,0,0-4.32-.41,42.28,42.28,0,0,0-8.19,13.78,134.9,134.9,0,0,0,10.68,35.06l.17.35c.62,1.31,1.26,2.62,1.92,3.91l.46.86q.87,1.68,1.8,3.33c.21.38.44.76.66,1.14q.86,1.5,1.77,3c.27.44.54.88.82,1.31.58.92,1.18,1.83,1.78,2.73l1,1.41c.59.86,1.2,1.71,1.82,2.55L89,362.58c.62.82,1.25,1.62,1.89,2.43l1.19,1.47c.65.79,1.32,1.57,2,2.34.42.49.83,1,1.26,1.45.7.78,1.42,1.55,2.14,2.32L98.79,374c.8.82,1.63,1.63,2.46,2.44.38.37.76.76,1.15,1.13q1.84,1.75,3.79,3.46a120.88,120.88,0,0,0,12.34,9.42,142.61,142.61,0,0,0,13.8,8.09,168.81,168.81,0,0,0,19,8.29A205,205,0,0,0,172,413.12c1.41.36,2.84.7,4.27,1,2.87.66,5.77,1.28,8.69,1.84a270.38,270.38,0,0,0,26.9,3.78c3.05.27,6.1.5,9.17.68,9.19.54,18.47.66,27.73.37,7.71-.23,15.4-.75,23-1.54a302.93,302.93,0,0,0,35.63-5.82,256.7,256.7,0,0,0,28.89-8.29c1.31-.46,2.6-.93,3.89-1.42,2.56-1,5.09-2,7.56-3a174,174,0,0,0,20.77-10.34c1.79-1.05,3.54-2.14,5.28-3.25l1.34-.87q2.34-1.51,4.62-3.1l.51-.35c1.67-1.17,3.31-2.38,4.93-3.6l1.14-.87q2.12-1.63,4.17-3.31l.66-.54q2.36-1.95,4.62-4l.84-.75c1.31-1.19,2.62-2.39,3.89-3.62l.67-.64q2.22-2.16,4.35-4.38l.49-.51c1.25-1.31,2.49-2.64,3.68-4l.63-.71c2.77-3.14,5.41-6.38,7.92-9.69l.35-.45q3.79-5,7.19-10.33l.19-.3c1-1.54,1.94-3.1,2.87-4.67C428.48,329.38,428.15,328.27,427.81,327.16Z" transform="translate(-35.19 -85.9)" style="fill:#d5d5d4"/><path d="M125.71,365.74c-.88-2.95-1.7-6-3.72-8.37s-5.65-3.59-8.24-1.92c-3.44,2.21-2.69,7.36-1.54,11.29l-18.44-9.26c-3.4-1.7-6.9-3.44-10.69-3.75s-8,1.15-9.8,4.48-.7,7.93,2,10.78,6.52,4.3,10.35,5.11c3.49.74,7.23,1.07,10.16,3.11s4.49,6.63,2,9.21c-2.81,2.92-8.44,1.22-11.12,4.26-2.21,2.49-.72,6.74,2.09,8.54s6.35,1.83,9.69,1.81l21.81-.14c4,0,16.67,2.09,19.58-1s-4.53-11.34-6.23-14.65A113.8,113.8,0,0,1,125.71,365.74Z" transform="translate(-35.19 -85.9)" style="fill:#b4b4b4"/><path d="M129.85,401.37l-12.77-8.47c-1.55-1-3.2-2.18-3.8-3.95-1-2.88,1.53-6,4.48-6.82s6.06.08,8.95,1.07a127.05,127.05,0,0,1,26.45,12.59c-1.26-4-2.53-8.21-1.51-12.25s5.31-7.56,9.24-6.17c9.13,3.22,13.73,26.25,5.3,32.17C155.22,417.24,139,407.4,129.85,401.37Z" transform="translate(-35.19 -85.9)" style="fill:#c8c7c7"/><path d="M333.83,407.3l-.49-.22c-4.69-2.27-5.55-9.77-4.91-14.29.77-5.47,3.47-10.45,6.12-15.29q12.56-22.89,25.09-45.8c1.34-2.43,2.88-5.05,5.47-6,5.19-1.95,10.24,4.45,9.66,10s-4.4,10-7.27,14.75-4.79,11.05-1.63,15.6a51.93,51.93,0,0,0,23.93-21.93c3.06-5.48,5.1-11.51,8.47-16.82s8.51-10,14.76-10.65,13.13,4.35,12.66,10.61c-.45,6-6.49,9.61-11.24,13.28s-8.86,10.71-4.91,15.22c3.25,3.7,9.16,2.43,13.91,1.13s11.05-1.73,13.37,2.62c2.11,4-1.26,9-5.48,10.55s-8.88.8-13.37.59a54.66,54.66,0,0,0-46.52,22.8c4.74-1.72,9.79-3.47,14.72-2.43s9.38,6.07,7.85,10.88c-2,6.14-10.48,6.33-16.84,5.29s-12.8.06-19.05,1a72,72,0,0,1-19.17.18A18.5,18.5,0,0,1,333.83,407.3Z" transform="translate(-35.19 -85.9)" style="fill:#c8c7c7"/><path d="M327.9,388.3c1.75-1.4,3.58-2.85,5.78-3.26s4.84.59,5.47,2.73c1.42,4.84-7.73,8.29-5.93,13,.75,1.94,3.21,2.74,5.24,2.31a13.26,13.26,0,0,0,5.32-3.11,38.47,38.47,0,0,1,8.82-6c3.27-1.42,7.15-1.85,10.36-.32s5.43,5.38,4.37,8.78-4.68,5.2-8.14,5.7-7,.05-10.48.57c-5,.74-9.4,3.45-13.63,6.17-7.59,4.87-24.09,12.66-29.73.38C300.52,404.75,321.41,393.52,327.9,388.3Z" transform="translate(-35.19 -85.9)" style="fill:#b4b4b4"/><polygon points="321.75 157.36 286.02 145.38 214.5 157.36 143.01 145.38 107.25 157.36 0 254.44 71.49 242.41 214.5 256.86 357.48 242.41 429 254.44 321.75 157.36" style="fill:#b9b9ba;mix-blend-mode:soft-light"/><polygon points="107.25 146.35 143.01 134.36 71.49 228.98 0 252.98 107.25 146.35" style="fill:#f8f7f7"/><polygon points="143.01 134.36 71.49 228.98 214.5 252.98 214.5 146.35 143.01 134.36" style="fill:#dcebf4"/><polygon points="286.02 134.36 214.5 146.35 214.5 252.98 357.48 228.98 286.02 134.36" style="fill:#f8f7f7"/><polygon points="286.02 134.36 321.75 146.35 429 252.98 357.48 228.98 286.02 134.36" style="fill:#dcebf4"/><g style="opacity:0.8"><polygon points="215.71 192.47 256.65 162.6 300.41 153.99 336.83 165.6 414.93 244.29 358.71 225.93 324.36 232.38 311.11 210.2 242.86 223.04 240.36 211.72 215.71 192.47" style="fill:#dcebf4"/><polygon points="154.46 140.23 138.7 167.91 161.78 174.69 150.17 201.12 96.43 194.93 43.16 214.11 108.03 147.73 141.1 136.9 154.46 140.23" style="fill:#dcebf4"/><polygon points="298.18 150.45 255.06 159.52 212.4 189.06 179.06 204.73 100.99 189.95 43.12 212.02 35.28 220.98 94.35 198.73 180.33 213.44 216.6 196.34 258.48 167.38 303.88 158 342.01 170.11 334.5 161.88 298.18 150.45" style="fill:#fff"/><polygon points="241.39 242.16 238.1 215.82 211.97 196.09 217.03 189.38 246.01 211.25 249.74 241.09 241.39 242.16" style="fill:#fff"/><polygon points="153.73 204.02 143.03 201.85 155.99 176.48 131.05 170.8 153.74 136.9 160.72 141.56 144.68 165.59 169.29 171.13 153.73 204.02" style="fill:#fff"/><polygon points="321.61 234.29 309.93 216.84 243.64 227.73 242.23 219.42 313.87 207.66 328.54 229.62 321.61 234.29" style="fill:#fff"/></g><polygon points="22.46 239.1 108.9 148.71 139.98 138.36 143.01 134.36 107.25 146.35 0 252.98 71.49 228.98 77.13 221.51 22.46 239.1" style="fill:#fff"/><polygon points="214.5 246.92 77.13 221.51 71.49 228.98 214.5 252.98 214.79 252.93 214.79 246.87 214.5 246.92" style="fill:#7fa6d1"/><polygon points="214.5 146.35 143.01 134.36 139.98 138.36 214.5 150.45 214.79 150.41 214.79 146.31 214.5 146.35" style="fill:#7fa6d1"/><polygon points="286.03 134.36 286.02 134.36 214.79 146.31 214.79 150.41 288.63 137.8 286.03 134.36" style="fill:#fff"/><polygon points="353.42 223.57 214.79 246.87 214.79 252.93 357.47 228.98 353.43 223.57 353.42 223.57" style="fill:#fff"/><polygon points="429 252.98 321.75 146.35 286.03 134.36 288.63 137.8 320.43 148.76 411.87 242.3 353.43 223.57 357.47 228.98 357.48 228.98 429 252.98" style="fill:#7fa6d1"/><path d="M247.32,278.38a103.24,103.24,0,0,0,28.81,4.21c15.91,0,28.83-1.89,28.83-4.21s-12.92-4.21-28.83-4.21A103.24,103.24,0,0,0,247.32,278.38Z" transform="translate(-35.19 -85.9)" style="fill:#364a5e;opacity:0.30000000000000004;mix-blend-mode:multiply"/><path d="M194.17,158.12c0,43.17,55.52,120.26,55.52,120.26s55.48-77.23,55.48-120.26a55.5,55.5,0,0,0-111,0Z" transform="translate(-35.19 -85.9)" style="fill:#508ecb"/><path d="M249.69,198.51a40.38,40.38,0,1,1,40.37-40.39A40.42,40.42,0,0,1,249.69,198.51Z" transform="translate(-35.19 -85.9)" style="fill:#fff"/><path d="M248.85,108.6V266.94s-50-69.58-50-108.35A50,50,0,0,1,248.85,108.6Z" transform="translate(-35.19 -85.9)" style="fill:#fff;opacity:0.1"/></g></g></svg>