<?xml version="1.0" encoding="iso-8859-1"?>
<!-- Generator: Adobe Illustrator 19.0.0, SVG Export Plug-In . SVG Version: 6.00 Build 0)  -->
<svg version="1.1" id="Capa_1" xmlns="http://www.w3.org/2000/svg" xmlns:xlink="http://www.w3.org/1999/xlink" x="0px" y="0px"
	 viewBox="0 0 512 512" style="enable-background:new 0 0 512 512;" xml:space="preserve">
<path style="fill:#8AD7F8;" d="M512,512c-43.776-80.672-124.832-139.435-222.955-150.645C167.456,347.477,54.912,410.645,0,512H512z
	"/>
<path style="fill:#FFFFFF;" d="M107.936,512c6.037-6.933,13.163-13.163,16.373-21.771c4.523-12.107-1.067-16.224-6.667-25.749
	c-11.499-19.563,10.059-30.453,28.672-21.163c8.501,4.245,8.437,12.768,14.272,17.813c11.541,9.984,23.339,0.267,34.795-2.059
	c29.067-5.92,64.149,7.808,88.267,22.101c20.565,12.171,44.171,15.979,40.523-16.544c-1.483-13.291-5.792-27.669-18.336-33.728
	c-8.768-4.245-31.872-0.459-36.171-9.227c-5.92-12.064,12.331-25.557,22.08-27.477c9.291-1.835,20.48,0.651,28.459,5.749
	c18.293,11.691,5.856,16.331,4.107,31.755c-1.355,11.808,4.501,19.232,17.12,17.227c13.397-2.144,14.08-15.435,28.309-17.856
	c20.875-3.541,13.141,11.253,5.899,23.275c-5.941,9.856-16.789,25.728-16.789,37.547c0.021,17.355,8.747,10.101,19.851,8.245
	c15.04-2.517,22.997,6.933,37.963,2.379c14.443-4.395,21.771-6.229,13.835-21.003c-8.437-15.691-17.067-33.44-27.776-47.584
	c-8.245-10.891-22.837-13.877-28.565-25.088c-4.107-7.979-1.419-16.853-3.296-25.376c-64.544-27.776-139.147-32.683-210.731-7.733
	c-1.397,0.501-2.688,1.163-4.085,1.685c-10.475,6.059-20.459,12.544-29.547,19.232c-12.811,9.461-31.563,24.917-38.976,38.603
	c-11.061,20.395-8.437,51.872-5.557,76.747H107.936z"/>
<path style="fill:#F3705A;" d="M436.523,180.533C436.523,80.821,355.712,0,256,0S75.456,80.821,75.456,180.533
	c0,50.421,20.725,95.957,54.037,128.715h-0.107l126.72,126.485l127.52-127.52c0.021-0.021,0.043-0.021,0.043-0.043l0.043-0.043
	C416.331,275.456,436.523,230.357,436.523,180.533"/>
<path style="fill:#FFFFFF;" d="M376.352,180.533c0,66.987-54.293,121.301-121.291,121.301c-66.976,0-121.291-54.315-121.291-121.301
	S188.085,59.243,255.061,59.243C322.059,59.243,376.352,113.547,376.352,180.533"/>
<path style="fill:#FFD15C;" d="M316.501,108.427H195.413c-6.379,0-11.563,5.163-11.563,11.563v121.077
	c0,6.4,5.184,11.563,11.563,11.563h121.088c6.4,0,11.563-5.163,11.563-11.563V119.989
	C328.064,113.589,322.891,108.427,316.501,108.427"/>
<rect x="236.373" y="108.427" style="fill:#F7B64C;" width="39.147" height="41.707"/>
<g>
</g>
<g>
</g>
<g>
</g>
<g>
</g>
<g>
</g>
<g>
</g>
<g>
</g>
<g>
</g>
<g>
</g>
<g>
</g>
<g>
</g>
<g>
</g>
<g>
</g>
<g>
</g>
<g>
</g>
</svg>
